<svg id="Layer_1_copy" data-name="Layer 1 copy" xmlns="http://www.w3.org/2000/svg" xmlns:xlink="http://www.w3.org/1999/xlink" version="1.1" viewBox="0 0 21 21">
    <defs>
        <style>
            .cls-1 {
            fill: url(#linear-gradient);
            }

            .cls-1, .cls-2 {
            stroke-width: 0px;
            }

            .cls-2 {
            fill: #c19976;
            fill-rule: evenodd;
            }
        </style>
        <linearGradient id="linear-gradient" x1="0" y1="10.5" x2="596.19" y2="10.5" gradientUnits="userSpaceOnUse">
            <stop offset="0" stop-color="#c19976"/>
            <stop offset=".398" stop-color="#50493d"/>
            <stop offset=".502" stop-color="#000"/>
            <stop offset=".605" stop-color="#50493d"/>
            <stop offset="1" stop-color="#c19976"/>
        </linearGradient>
    </defs>
    <path class="cls-1" d="M1,16.97c4.161-.241,8.058-1.988,11.02-4.95,2.962-2.961,4.709-6.858,4.951-11.02h4.03V0h-4.994l-.015.485c-.122,4.087-1.784,7.933-4.679,10.828S4.571,15.87.485,15.992l-.485.014v4.994h1v-4.03Z"/>
    <path id="Fill-1-Copy" class="cls-2" d="M19.21,20.332c-.408.37-1.069.329-1.502-.12-.428-.444-.458-1.134-.041-1.513.413-.382,1.089-.325,1.51.13.421.455.436,1.129.033,1.503ZM14.168,15.737c1.2.682,1.891,1.261,1.891,1.261,0,0-.536-.722-1.146-1.954-.606-1.23-1.291-2.984-1.539-5.048-2.02-.456-5.345-2.957-8.193-5.339C2.337,2.275,0,0,0,0,0,0,2.137,2.461,4.349,5.431c2.218,2.979,4.537,6.452,4.874,8.492,2.05.367,3.751,1.139,4.945,1.814Z"/>
</svg>